<?xml version="1.0" encoding="iso-8859-1"?>
<!-- Uploaded to: SVG Repo, www.svgrepo.com, Generator: SVG Repo Mixer Tools -->
<svg xmlns="http://www.w3.org/2000/svg" xmlns:xlink="http://www.w3.org/1999/xlink" version="1.1" id="Layer_1"  viewBox="0 0 502 502" xml:space="preserve" width="512" height="512">
<g>
	<g>
		<path style="fill:#CCD7EB;" d="M454.52,268.672h-5.331c-20.115,0-36.524-15.847-37.436-35.736h-0.13    c-0.912,19.89-17.321,35.736-37.436,35.736h-5.332c-20.115,0-36.524-15.847-37.436-35.736h-0.213    c-0.912,19.89-17.321,35.736-37.436,35.736h-5.332c-20.115,0-36.524-15.847-37.436-35.736h-0.13    c-0.912,19.89-17.321,35.736-37.436,35.736h-5.331c-20.115,0-36.524-15.847-37.436-35.736h-0.088    c-0.912,19.89-17.321,35.736-37.436,35.736h-5.332c-20.115,0-36.524-15.847-37.436-35.736h-0.13    c-0.912,19.89-17.321,35.736-37.436,35.736H47.48c-20.115,0-36.524-15.847-37.436-35.736H10V473.5h482V232.936h-0.044    C491.044,252.825,474.635,268.672,454.52,268.672z"/>
		<g>
			<path style="fill:#4D93E8;" d="M411.708,231.192c0,0.585,0.018,1.166,0.044,1.744c0.912,19.89,17.321,35.736,37.436,35.736h5.331     c20.115,0,36.524-15.847,37.436-35.736c0.027-0.578,0.044-1.159,0.044-1.744v-83.794H10v83.794c0,0.585,0.018,1.166,0.044,1.744     c0.912,19.89,17.321,35.736,37.436,35.736h5.331c20.115,0,36.524-15.847,37.436-35.736c0.026-0.578,0.044-1.159,0.044-1.744     h0.041c0,0.585,0.018,1.166,0.044,1.744c0.912,19.89,17.321,35.736,37.436,35.736h5.332c20.115,0,36.524-15.847,37.436-35.736     c0.026-0.578,0.044-1.159,0.044-1.744c0,0.585,0.018,1.166,0.044,1.744c0.912,19.89,17.321,35.736,37.436,35.736h5.331     c20.115,0,36.524-15.847,37.436-35.736c0.026-0.578,0.044-1.159,0.044-1.744h0.041c0,0.585,0.018,1.166,0.044,1.744     c0.912,19.89,17.321,35.736,37.436,35.736h5.332c20.115,0,36.524-15.847,37.436-35.736c0.026-0.578,0.044-1.159,0.044-1.744     h0.124c0,0.585,0.018,1.166,0.044,1.744c0.912,19.89,17.321,35.736,37.436,35.736h5.332c20.115,0,36.524-15.847,37.436-35.736     c0.026-0.578,0.044-1.159,0.044-1.744H411.708z"/>
		</g>
	</g>
	<g>
		<rect x="327" y="312.252" style="fill:#4D93E8;" width="130.306" height="107.208"/>
		<rect x="44.694" y="312.252" style="fill:#4D93E8;" width="130.306" height="107.208"/>
	</g>
	<rect x="213.366" y="339.449" style="fill:#4D93E8;" width="75.269" height="134"/>
	<path style="fill:#CCD7EB;" d="M54.5,101.5L54.5,101.5C34.342,101.5,18,85.158,18,65V28.5h73V65C91,85.158,74.658,101.5,54.5,101.5   z"/>
	<g>
		<path d="M18,18.5c-5.522,0-10,4.477-10,10V65c0,9.843,3.083,18.976,8.322,26.5H11c-5.522,0-10,4.477-10,10s4.478,10,10,10h34    v25.898H10c-5.522,0-10,4.477-10,10V473.5c0,5.523,4.478,10,10,10h482c5.522,0,10-4.477,10-10V147.398c0-5.523-4.478-10-10-10H65    V111.5h33c5.522,0,10-4.477,10-10s-4.478-10-10-10h-5.322c2.015-2.895,3.707-6.028,5.03-9.349C113.128,79.867,125,66.545,125,50.5    c0-17.645-14.355-32-32-32H18z M105,50.5c0,3.542-1.552,6.72-4,8.919V41.581C103.448,43.78,105,46.958,105,50.5z M28,65V38.5h53    V65c0,14.612-11.888,26.5-26.5,26.5S28,79.612,28,65z M421.708,157.398H482v73.793c0,15.153-12.328,27.48-27.48,27.48h-5.331    c-15.152,0-27.48-12.328-27.48-27.48V157.398z M341.375,157.398h60.292v73.793c0,15.153-12.328,27.48-27.48,27.48h-5.331    c-15.152,0-27.48-12.328-27.48-27.48V157.398z M260.959,157.398h60.291v73.793c0,15.153-12.327,27.48-27.479,27.48h-5.332    c-15.152,0-27.479-12.328-27.479-27.48V157.398z M180.625,157.398h60.292v73.793c0,15.153-12.328,27.48-27.48,27.48h-5.331    c-15.152,0-27.48-12.328-27.48-27.48V157.398z M100.333,157.398h60.292v73.793c0,15.153-12.328,27.48-27.48,27.48h-5.331    c-15.152,0-27.48-12.328-27.48-27.48V157.398z M20,157.398h60.292v73.793c0,15.153-12.328,27.48-27.48,27.48H47.48    c-15.152,0-27.48-12.328-27.48-27.48V157.398z M223.365,463.449v-114h55.27v114H223.365z M298.635,463.5V339.449    c0-5.523-4.478-10-10-10h-75.27c-5.522,0-10,4.477-10,10V463.5H20V269.874c7.763,5.531,17.244,8.798,27.48,8.798h5.331    c15.235,0,28.807-7.221,37.501-18.411c8.694,11.19,22.266,18.411,37.501,18.411h5.331c15.223,0,28.786-7.21,37.48-18.385    c8.695,11.175,22.258,18.385,37.48,18.385h5.331c15.235,0,28.807-7.221,37.501-18.411c8.694,11.19,22.266,18.411,37.501,18.411    h5.332c15.259,0,28.85-7.243,37.542-18.464c8.692,11.22,22.284,18.464,37.543,18.464h5.331c15.235,0,28.807-7.221,37.501-18.411    c8.694,11.19,22.266,18.411,37.501,18.411h5.331c10.236,0,19.718-3.267,27.48-8.798V463.5H298.635z"/>
		<path d="M457.306,302.252H327c-5.522,0-10,4.477-10,10V419.46c0,5.523,4.478,10,10,10h130.306c5.522,0,10-4.477,10-10V312.252    C467.306,306.729,462.828,302.252,457.306,302.252z M447.306,409.46H337v-87.208h110.306V409.46z"/>
		<path d="M410.185,349.272h8.424c5.522,0,10-4.477,10-10s-4.478-10-10-10h-8.424c-5.522,0-10,4.477-10,10    S404.662,349.272,410.185,349.272z"/>
		<path d="M354.221,349.272h27.69c5.522,0,10-4.477,10-10s-4.478-10-10-10h-27.69c-5.522,0-10,4.477-10,10    S348.698,349.272,354.221,349.272z"/>
		<path d="M175,302.252H44.694c-5.522,0-10,4.477-10,10V419.46c0,5.523,4.478,10,10,10H175c5.522,0,10-4.477,10-10V312.252    C185,306.729,180.522,302.252,175,302.252z M165,409.46H54.694v-87.208H165V409.46z"/>
		<path d="M127.879,349.272h8.424c5.522,0,10-4.477,10-10s-4.478-10-10-10h-8.424c-5.522,0-10,4.477-10,10    S122.356,349.272,127.879,349.272z"/>
		<path d="M71.915,349.272h27.69c5.522,0,10-4.477,10-10s-4.478-10-10-10h-27.69c-5.522,0-10,4.477-10,10    S66.393,349.272,71.915,349.272z"/>
		<path d="M240,387.427c-5.522,0-10,4.477-10,10v8.28c0,5.523,4.478,10,10,10s10-4.477,10-10v-8.28    C250,391.904,245.522,387.427,240,387.427z"/>
		<path d="M279,297.449h-56c-5.522,0-10,4.477-10,10s4.478,10,10,10h56c5.522,0,10-4.477,10-10S284.522,297.449,279,297.449z"/>
	</g>
</g>















</svg>